# xmcd
#
# Track frame offsets: 
#        150
#        19935
#        44182
#        58561
#        81631
#        98161
#        118915
#        140645
#        165539
#        182935
#        196996
#        214624
#        230417
#
# Disc length: 3292 seconds
#
# Revision: 2
# Processed by: cddbd v1.5.1PL2 Copyright (c) Steve Scherf et al.
# Submitted via: ExactAudioCopy v0.95b2
#
DISCID=c30cda0d
DTITLE=Hubert Sumlin - About Them Shoes
DYEAR=2005
DGENRE=Blues
TTITLE0=I'm Ready
TTITLE1=Still A Fool
TTITLE2=She's Into Something
TTITLE3=Iodine In My Coffee
TTITLE4=Look What You've Done
TTITLE5=Come Home Baby
TTITLE6=Evil
TTITLE7=Long Distance Call
TTITLE8=The Same Thing
TTITLE9=Don't Go No Farther
TTITLE10=I Love The Live, I Live The Live I Love
TTITLE11=Walkin' Thru The Park
TTITLE12=This Is The End, Little Girl
EXTD=Tone Cool Records\nBlondie Chaplin Bass, Percussion, Vocals, Voca
EXTD=ls (bckgr) \nEric Clapton Guitar, Vocals \nJames Cotton Harmonica
EXTD=\nLevon Helm Drums \nDavid Johansen Vocals \nBob Margolin Guitar
EXTD=\nDavid Maxwell Piano \nPaul Nowinski Bass \nPaul Oscher Harmoni
EXTD=ca, Vocals, Slide Guitar \nNathaniel Peterson, Jr. Vocals \nGeorg
EXTD=e Receli Percussion, Drums, Vocals \nKeith Richards Guitar, Vocal
EXTD=s, Vocals (bckgr) \nHubert Sumlin Guitar, Vocals\nMudcat Ward Bas
EXTD=s \n
EXTT0=
EXTT1=
EXTT2=
EXTT3=
EXTT4=
EXTT5=
EXTT6=
EXTT7=
EXTT8=
EXTT9=
EXTT10=
EXTT11=
EXTT12=
PLAYORDER=
